Coordinates
version=1
nRows=24
nColumns=24
inDegrees=yes

Units are S.I. units (second, meters, Newtons, ...)
Angles are in degrees.

endheader
time	pelvis_tilt	pelvis_list	pelvis_rotation	pelvis_tx	pelvis_ty	pelvis_tz	hip_flexion_r	hip_adduction_r	hip_rotation_r	knee_angle_r	ankle_angle_r	subtalar_angle_r	mtp_angle_r	hip_flexion_l	hip_adduction_l	hip_rotation_l	knee_angle_l	ankle_angle_l	subtalar_angle_l	mtp_angle_l	lumbar_extension	lumbar_bending	lumbar_rotation
      0.56600000	     -3.20421115	      3.57639211	     13.04198347	     -0.82002690	      0.87052628	      0.27406283	     34.34057537	     -6.02832183	    -11.40824415	     -8.80641704	      7.35627264	     -0.40117557	      5.10472217	    -18.65121193	      2.97864839	      4.60619010	    -11.84451144	     13.81981361	      5.95206060	     18.92957416	     -2.59630306	     -6.85439254	    -12.05128287
      0.57016667	     -3.17042730	      3.43382086	     13.08216572	     -0.81359673	      0.86988139	      0.27425861	     34.28758516	     -5.80299878	    -11.36083536	     -9.35598038	      7.14963799	     -0.73345520	      5.05143056	    -18.71936210	      2.70433804	      4.51911145	    -12.54332916	     13.53228236	      5.99438035	     18.99042446	     -2.49310201	     -6.60348944	    -11.94211341
      0.57433333	     -3.11374173	      3.27705307	     13.10796285	     -0.80714067	      0.86929518	      0.27452880	     34.19389522	     -5.53776612	    -11.24564323	     -9.87422123	      6.78878990	     -1.21754372	      5.00021820	    -18.79318834	      2.40349302	      4.36882375	    -13.26202330	     13.27096314	      6.14112886	     19.14744030	     -2.45713525	     -6.34326501	    -11.87056565
      0.57850000	     -3.04307963	      3.11030117	     13.11913012	     -0.80060579	      0.86875359	      0.27481242	     34.07356595	     -5.25084334	    -11.15334030	    -10.37830727	      6.38903602	     -1.70517097	      4.97382206	    -18.87554356	      2.09218806	      4.19202428	    -13.99773082	     12.95826701	      6.25811676	     19.39916361	     -2.40215049	     -6.07318592	    -11.79324301
      0.58266667	     -2.99039916	      2.93588832	     13.12633768	     -0.79404336	      0.86822793	      0.27511805	     33.95998207	     -4.95139247	    -11.03499550	    -10.86030159	      5.92382293	     -2.21306252	      4.97919690	    -18.91500188	      1.78068022	      4.03481230	    -14.77072988	     12.59156471	      6.33543820	     19.73569041	     -2.32618944	     -5.78615320	    -11.70266223
      0.58683333	     -2.94923127	      2.74046370	     13.12572579	     -0.78742994	      0.86771827	      0.27543801	     33.84676790	     -4.62649778	    -10.90867680	    -11.31828180	      5.40721621	     -2.67451434	      5.00784780	    -18.93860904	      1.45408773	      3.89852230	    -15.53993871	     12.14190459	      6.38041213	     20.07235289	     -2.23256736	     -5.46285748	    -11.60675761
      0.59100000	     -2.87390757	      2.54815517	     13.10434304	     -0.78080554	      0.86726428	      0.27581269	     33.70356392	     -4.28099435	    -10.75071898	    -11.78269364	      4.81033647	     -3.31893546	      5.08410034	    -18.96874027	      1.12151807	      3.68771278	    -16.37367403	     11.74104146	      6.45789737	     20.59461509	     -2.17552380	     -5.16601303	    -11.48100193
      0.59516667	     -2.84643922	      2.34396657	     13.07427905	     -0.77411582	      0.86677507	      0.27618912	     33.62137226	     -3.93803799	    -10.62826108	    -12.27220372	      4.22309535	     -3.75320370	      6.15408425	    -18.91956881	      0.78502172	      3.42635906	    -17.23611059	     11.17438017	      6.50707399	     25.93460162	     -2.03981652	     -4.84463214	    -11.39465050
      0.59933333	     -2.78779719	      2.13967267	     13.03641884	     -0.76741592	      0.86639074	      0.27657447	     33.49647029	     -3.57739048	    -10.46201308	    -12.73954522	      3.54142567	     -4.34538264	      6.15284585	    -18.92960208	      0.46485955	      3.32992103	    -18.05149793	     10.59730521	      6.40648820	     26.01021693	     -1.96747497	     -4.51312336	    -11.23275005
      0.60350000	     -2.75802311	      1.92564566	     12.98499201	     -0.76069949	      0.86597488	      0.27699505	     33.41943043	     -3.20753935	    -10.27721232	    -13.23790867	      2.84572036	     -4.93828185	      6.17999178	    -18.86094410	      0.13633887	      3.14875298	    -18.95542046	     10.02530550	      6.40970756	     26.15504224	     -1.83693845	     -4.17597293	    -11.07804230
      0.60766667	     -2.72837219	      1.70079919	     12.91838273	     -0.75396246	      0.86558708	      0.27745532	     33.35141900	     -2.81739883	    -10.06192820	    -13.74989223	      2.14419871	     -5.53981529	      6.24108019	    -18.76735625	     -0.20243968	      2.94321763	    -19.89411617	      9.41427441	      6.42324275	     26.39611638	     -1.71670662	     -3.82859278	    -10.90471203
      0.61183333	     -2.65084389	      1.43989292	     12.82726341	     -0.74715912	      0.86527769	      0.27794433	     33.24470542	     -2.37454387	     -9.86277909	    -14.28207797	      1.46116487	     -6.12230267	      6.46077018	    -18.70732662	     -0.59317488	      2.66063055	    -20.85455766	      8.76071351	      6.53797377	     27.14051083	     -1.63130847	     -3.40335050	    -10.72519477
      0.61600000	     -2.71250890	      1.25562486	     12.75546409	     -0.74048212	      0.86482411	      0.27839160	     33.33764764	     -2.05882698	     -9.63952719	    -14.94544304	      0.79807026	     -6.63710089	      6.52402369	    -18.46841175	     -0.84542045	      2.57914282	    -21.88182176	      8.07425877	      6.36625762	     27.39313432	     -1.41696979	     -3.13298486	    -10.56151386
      0.62016667	     -2.71664259	      1.02669606	     12.65499915	     -0.73373231	      0.86447260	      0.27890292	     33.37014416	     -1.66887530	     -9.39724600	    -15.60181126	      0.15484391	     -7.18988123	      6.60804815	    -18.26616167	     -1.16865340	      2.37432358	    -22.93301731	      7.34341888	      6.34132899	     27.72853603	     -1.25369059	     -2.78146049	    -10.35321050
      0.62433333	     -2.70409024	      0.77602346	     12.54571370	     -0.72696601	      0.86414764	      0.27941773	     33.41018261	     -1.26180721	     -9.19405132	    -16.31670794	     -0.38594164	     -7.61097411	      7.67796480	    -18.04232684	     -1.52873809	      2.10129994	    -24.04046538	      6.57177783	      6.35732876	     31.86668534	     -1.10823109	     -2.38446688	    -10.21491329
      0.62850000	     -2.73096173	      0.56844716	     12.43193086	     -0.72025562	      0.86382233	      0.27992782	     33.52368110	     -0.90776503	     -8.95634241	    -17.11822829	     -0.88245644	     -8.04937293	      7.66084931	    -17.76770883	     -1.80883137	      1.96068380	    -25.16777961	      5.76112423	      6.22677235	     31.90758115	     -0.93582311	     -2.06038290	     -9.99845084
      0.63266667	     -2.75757886	      0.34490190	     12.30820674	     -0.71354327	      0.86350059	      0.28047053	     33.65707651	     -0.53497861	     -8.71884639	    -17.96603287	     -1.30182682	     -8.44650864	      7.64734902	    -17.44740912	     -2.11773248	      1.74894790	    -26.37000590	      4.92894051	      6.18780807	     31.98390929	     -0.76228429	     -1.71019442	     -9.80070588
      0.63683333	     -2.76920708	      0.11478613	     12.17512700	     -0.70680629	      0.86323983	      0.28100526	     33.78716459	     -0.15726463	     -8.50003884	    -18.86026691	     -1.56524291	     -8.69170734	      7.63928957	    -17.13188436	     -2.43134007	      1.55228331	    -27.56934782	      4.00795442	      6.10485379	     32.03781367	     -0.60407567	     -1.33130624	     -9.66247040
      0.64100000	     -2.81151138	     -0.10357583	     12.04434595	     -0.70015040	      0.86293345	      0.28159276	     33.97410684	      0.20830744	     -8.25377193	    -19.80259156	     -1.88360137	     -9.09815077	      7.61707232	    -16.71816239	     -2.74101084	      1.32729848	    -28.89023718	      3.19988656	      6.09590861	     32.16509833	     -0.42563823	     -1.01224595	     -9.41688425
      0.64516667	     -2.81140882	     -0.33604608	     11.90848880	     -0.69345393	      0.86274016	      0.28215177	     34.11265905	      0.58954985	     -8.04612165	    -20.76160506	     -1.99674513	     -9.28080266	      7.60426049	    -16.34418053	     -3.06854470	      1.12178887	    -30.18933945	      2.21500108	      6.00669269	     32.22719550	     -0.29306063	     -0.62269304	     -9.29190200
      0.64933333	     -2.86172864	     -0.55166105	     11.77482038	     -0.68683682	      0.86247091	      0.28275491	     34.32411849	      0.94674177	     -7.82507505	    -21.76207184	     -2.14359554	     -9.55075098	      7.56858241	    -15.84689757	     -3.38780034	      0.87094307	    -31.60679616	      1.31839101	      6.00624808	     32.34335625	     -0.11046282	     -0.31233732	     -9.07273280
      0.65350000	     -2.87780421	     -0.78405779	     11.64103099	     -0.68021279	      0.86228898	      0.28335154	     34.48829536	      1.32591552	     -7.62998699	    -22.75215175	     -2.16762668	     -9.73279651	      7.52307982	    -15.37061032	     -3.73213143	      0.63924786	    -33.02391815	      0.33424875	      5.95266393	     32.45188718	      0.03180037	      0.05100139	     -8.90033909
      0.65766667	     -2.88950653	     -1.01329637	     11.50912995	     -0.67362304	      0.86214573	      0.28394383	     34.64367598	      1.70010677	     -7.45399806	    -23.74441595	     -2.11618720	     -9.87525874	      7.46301021	    -14.86140940	     -4.07893004	      0.41110539	    -34.48177425	     -0.67378802	      5.89079861	     32.54744172	      0.15849306	      0.40714858	     -8.74093436
      0.66183333	     -2.89323289	     -1.24600743	     11.37675554	     -0.66705934	      0.86204365	      0.28455023	     34.77332808	      2.08201133	     -7.28896541	    -24.70680604	     -2.00991815	     -9.96786224	      7.39947830	    -14.33023396	     -4.44078092	      0.17127872	    -35.96844046	     -1.70309203	      5.81560012	     32.60371046	      0.27987924	      0.76994860	     -8.59884779
